<svg width="60" height="60" viewBox="0 0 60 60" fill="none" xmlns="http://www.w3.org/2000/svg">
<path d="M24.8829 2C28.5953 2.1 31.6053 5.2 31.6053 8.9V10.7V12.7H33.612H42.1405C43.5451 12.7 44.9498 13.3 45.9532 14.3C46.9565 15.3 47.5585 16.6 47.4582 18V26.5V28.5H49.4649H51.2709C55.0836 28.5 58.194 31.5 58.194 35.2C58.194 39 55.1839 42.1 51.3712 42.1H49.4649H47.4582V44.1V52.6C47.4582 55.6 45.0502 58 42.1405 58H32.107V53.9C32.107 53.1 31.9063 52.2 31.6053 51.5C31.3043 50.7 30.8027 50.1 30.2007 49.5C28.796 48.1 26.7893 47.4 24.7826 47.4H24.6823C22.8762 47.4 21.0702 48.1 19.5652 49.3C18.1605 50.6 17.3579 52.2 17.3579 54.1V58.1H7.52508C6.12039 58.1 4.71571 57.5 3.61203 56.5C2.60869 55.5 2.00668 54.1 2.00668 52.7V42.9H6.12039C7.92641 42.9 9.6321 42.2 10.9364 40.8C11.6388 40.1 12.2408 39.2 12.6421 38.3C13.0435 37.4 13.2441 36.4 13.2441 35.4C13.1438 31.3 9.83277 28 6.02006 28H2.00668V18C2.00668 16.6 2.60869 15.2 3.61203 14.2C4.61538 13.2 6.02006 12.7 7.52508 12.7H16.0535H18.0602V10.7V8.8C18.0602 7.9 18.2609 7 18.5619 6.2C18.9632 5.4 19.4649 4.6 20.0669 4C20.6689 3.4 21.4716 2.9 22.2742 2.5C23.0769 2.2 23.9799 2 24.8829 2ZM24.8829 0C23.7793 0 22.5752 0.2 21.5719 0.6C20.4682 1 19.4649 1.7 18.6622 2.5C17.8595 3.3 17.1572 4.3 16.7558 5.4C16.3545 6.5 16.0535 7.6 16.0535 8.8V10.7H7.52508C5.61872 10.7 3.71237 11.4 2.30768 12.8C0.802668 14.2 -7.62939e-06 16.1 -7.62939e-06 18V30H6.02006C8.72909 30 11.1371 32.4 11.1371 35.2C11.1371 36 11.0368 36.7 10.7358 37.4C10.4348 38.1 10.0334 38.7 9.53176 39.2C8.62875 40.1 7.42474 40.7 6.12039 40.7H-7.62939e-06V52.5C-7.62939e-06 54.5 0.802668 56.4 2.20735 57.8C3.61203 59.2 5.51839 60 7.52508 60H19.3645V54C19.3645 52.4 20.1672 51.3 20.8696 50.7C21.9732 49.8 23.2776 49.3 24.6823 49.3H24.7826C26.2876 49.3 27.7926 49.9 28.796 50.9C29.1973 51.3 29.4983 51.8 29.699 52.3C29.8997 52.8 30 53.4 30 53.9V60H41.9398C45.9532 60 49.2642 56.7 49.2642 52.6V44.1H51.1706C55.9866 44.1 60 40.1 60 35.2C60 30.4 55.9866 26.5 51.0702 26.5H49.2642V18C49.2642 14 45.8528 10.7 41.9398 10.7H33.4114V8.9C33.612 4.1 29.699 0.1 24.8829 0Z" fill="white"/>
</svg>
